HIERARCHY
ROOT Hips
{
	OFFSET	0.00	0.00	0.00
	CHANNELS 6 Xposition Yposition Zposition Zrotation Xrotation Yrotation
	JOINT LeftUpLeg
	{
		OFFSET	 0.126116	-0.014019	-0.065224
		CHANNELS 3 Zrotation Xrotation Yrotation
		JOINT LeftLeg
		{
			OFFSET	 0.000000	 0.000000	 0.569914
			CHANNELS 3 Zrotation Xrotation Yrotation
			JOINT LeftFoot
			{
				OFFSET	 0.000000	 0.000000	 0.544423
				CHANNELS 3 Zrotation Xrotation Yrotation
				JOINT LeftToeBase
				{
					OFFSET	 0.000000	 0.000000	 0.207117
					CHANNELS 3 Zrotation Xrotation Yrotation
					End Site
					{
						OFFSET	 0.000000	 0.000000	 0.207117
					}
				}
			}
		}
	}
	JOINT RightUpLeg
	{
		OFFSET	-0.124023	-0.008373	-0.065224
		CHANNELS 3 Zrotation Xrotation Yrotation
		JOINT RightLeg
		{
			OFFSET	 0.000000	 0.000000	 0.570047
			CHANNELS 3 Zrotation Xrotation Yrotation
			JOINT RightFoot
			{
				OFFSET	 0.000000	 0.000000	 0.544354
				CHANNELS 3 Zrotation Xrotation Yrotation
				JOINT RightToeBase
				{
					OFFSET	 0.000000	 0.000000	 0.207540
					CHANNELS 3 Zrotation Xrotation Yrotation
					End Site
					{
						OFFSET	 0.000000	 0.000000	 0.207540
					}
				}
			}
		}
	}
	JOINT Spine
	{
		OFFSET	 0.000184	-0.007763	 0.117403
		CHANNELS 3 Zrotation Xrotation Yrotation
		JOINT Spine1
		{
			OFFSET	 0.000000	 0.000000	 0.137269
			CHANNELS 3 Zrotation Xrotation Yrotation
			JOINT Spine2
			{
				OFFSET	 0.000000	 0.000000	 0.156879
				CHANNELS 3 Zrotation Xrotation Yrotation
				JOINT LeftShoulder
				{
					OFFSET	 0.080501	-0.002496	 0.160144
					CHANNELS 3 Zrotation Xrotation Yrotation
					JOINT LeftArm
					{
						OFFSET	 0.000000	 0.000000	 0.164363
						CHANNELS 3 Zrotation Xrotation Yrotation
						JOINT LeftForeArm
						{
							OFFSET	 0.000000	 0.000000	 0.364576
							CHANNELS 3 Zrotation Xrotation Yrotation
							JOINT LeftHand
							{
								OFFSET	 0.000000	 0.000000	 0.360812
								CHANNELS 3 Zrotation Xrotation Yrotation
								JOINT LeftHandIndex1
								{
									OFFSET	 0.000000	 0.000000	 0.086006
									CHANNELS 3 Zrotation Xrotation Yrotation
									JOINT LeftHandIndex2
									{
										OFFSET	 0.000000	 0.000000	 0.047236
										CHANNELS 3 Zrotation Xrotation Yrotation
										JOINT LeftHandIndex3
										{
											OFFSET	-0.004284	-0.000551	 0.038166
											CHANNELS 3 Zrotation Xrotation Yrotation
											End Site
											{
												OFFSET	-0.004284	-0.000551	 0.038166
											}
										}
									}
								}
							}
						}
					}
				}
				JOINT Neck
				{
					OFFSET	 0.000000	 0.000000	 0.176489
					CHANNELS 3 Zrotation Xrotation Yrotation
					JOINT Head
					{
						OFFSET	 0.000000	-0.001747	 0.077940
						CHANNELS 3 Zrotation Xrotation Yrotation
						End Site
						{
							OFFSET	 0.000000	-0.001747	 0.077940
						}
					}
				}
				JOINT RightShoulder
				{
					OFFSET	-0.080363	 0.000306	 0.159706
					CHANNELS 3 Zrotation Xrotation Yrotation
					JOINT RightArm
					{
						OFFSET	 0.000000	 0.000000	 0.164196
						CHANNELS 3 Zrotation Xrotation Yrotation
						JOINT RightForeArm
						{
							OFFSET	 0.000000	 0.000000	 0.365611
							CHANNELS 3 Zrotation Xrotation Yrotation
							JOINT RightHand
							{
								OFFSET	 0.000000	 0.000000	 0.360648
								CHANNELS 3 Zrotation Xrotation Yrotation
								JOINT RightHandIndex1
								{
									OFFSET	 0.000000	 0.000000	 0.069977
									CHANNELS 3 Zrotation Xrotation Yrotation
									JOINT RightHandIndex2
									{
										OFFSET	 0.000000	 0.000000	 0.052305
										CHANNELS 3 Zrotation Xrotation Yrotation
										JOINT RightHandIndex3
										{
											OFFSET	 0.009002	-0.000782	 0.042196
											CHANNELS 3 Zrotation Xrotation Yrotation
											End Site
											{
												OFFSET	 0.009002	-0.000782	 0.042196
											}
										}
									}
								}
							}
						}
					}
				}
			}
		}
	}
}
MOTION
Frames:    10
Frame Time: 0.03333334
 3.220620	 6.856849	 0.742149	-89.043560	-2.114880	 0.158857	 6.535199	-2.404883	-178.568200	-2.450746	-35.613270	 1.285648	 10.089610	 89.806180	-9.011914	-2.376183	 30.422890	-0.043173	 1.572131	-29.483110	 179.449000	 21.345490	-72.916200	 24.806460	 177.332100	 89.296400	-170.009700	 2.378762	 29.637640	 0.027246	-3.344203	 4.410822	 1.280052	-4.726892	-1.731262	 0.833586	-4.374089	-4.334740	-0.453859	-91.797620	 78.070890	 178.907300	 35.710660	 63.616010	-47.449910	-9.012959	-4.201846	-29.274660	 3.644097	-2.109173	-5.366661	-3.812334	 37.924440	-2.927599	-2.450526	 36.184240	 0.754587	-1.378229	 35.397820	-2.634230	-0.316706	 4.040780	-1.848678	-0.666322	-11.824940	-1.736129	 89.793450	 78.755590	 179.529800	-41.828820	 71.356810	 43.891700	 1.660093	-7.555489	 25.652420	-13.115990	-3.210217	 9.586110	 6.437017	 35.671460	-0.771858	 2.830251	 35.756010	-7.813440	-2.350882	 35.473990	 5.254307
 3.191052	 6.854227	 0.740240	-88.902210	-1.935042	-0.257996	 6.173193	-0.180076	-177.919400	-2.822823	-33.857410	 1.023940	 94.669050	 89.980220	-93.955540	-2.376538	 30.357890	-0.041726	 1.839883	-31.343140	 179.619800	 16.843930	-69.156650	 20.142550	-178.217900	 88.781310	-174.279800	 2.377836	 29.821190	 0.031296	-3.400520	 4.377296	 1.743554	-4.828215	-1.781373	 0.803134	-4.386503	-4.391857	-0.457317	-91.784520	 78.362300	 178.840400	 35.382840	 62.855940	-48.138820	-8.800742	-4.368925	-30.394820	 3.751301	-2.108032	-5.366701	-3.812334	 37.924440	-2.927599	-2.450526	 36.184240	 0.754587	-1.378229	 35.397820	-2.634230	-0.338343	 4.103128	-2.146333	-0.581914	-12.023930	-1.575976	 89.787950	 78.466850	 179.486600	-41.718960	 71.427600	 43.306430	 1.796037	-7.640031	 26.367160	-12.917050	-3.204189	 9.589891	 6.437017	 35.671460	-0.771858	 2.830251	 35.756010	-7.813440	-2.350882	 35.473990	 5.254307
 3.173948	 6.852834	 0.739395	-88.826160	-1.810180	-0.462358	 6.049117	 1.232842	-177.583500	-2.990054	-32.515630	 0.959893	 24.641940	 89.889860	-24.015340	-2.376220	 30.414830	-0.042997	 1.939772	-32.164390	 179.705700	 14.793150	-66.727940	 17.922860	-176.279800	 88.847670	-176.116600	 2.377707	 29.845470	 0.031830	-3.426229	 4.340628	 1.979313	-4.880404	-1.804492	 0.785035	-4.398858	-4.416846	-0.459559	-91.776940	 78.511540	 178.806200	 35.176760	 62.458080	-48.496060	-8.707528	-4.454254	-30.954530	 3.806770	-2.103920	-5.367380	-3.812334	 37.924440	-2.927599	-2.450526	 36.184240	 0.754587	-1.378229	 35.397820	-2.634230	-0.353066	 4.149724	-2.302647	-0.545559	-12.135540	-1.519319	 89.784740	 78.319490	 179.470200	-41.676610	 71.473400	 43.039380	 1.864481	-7.673121	 26.681470	-12.824750	-3.201656	 9.591487	 6.437017	 35.671460	-0.771858	 2.830251	 35.756010	-7.813440	-2.350882	 35.473990	 5.254307
 3.150796	 6.851137	 0.738343	-88.735070	-1.628933	-0.662249	 5.974669	 3.296321	-177.246500	-3.195544	-30.323730	 0.934439	 14.119300	 89.717450	-13.524990	-2.374584	 30.715910	-0.049701	 2.046999	-33.258930	 179.766500	 12.557900	-63.184250	 15.398720	-172.507900	 89.045300	-179.735600	 2.378302	 29.728170	 0.029247	-3.449499	 4.275916	 2.218089	-4.933336	-1.827619	 0.763321	-4.417062	-4.440702	-0.462375	-91.768550	 78.667860	 178.773400	 34.947330	 61.935310	-48.986800	-8.656106	-4.502929	-31.622670	 3.771358	-2.099364	-5.368281	-3.812334	 37.924440	-2.927599	-2.450526	 36.184240	 0.754587	-1.378229	 35.397820	-2.634230	-0.367113	 4.218500	-2.488582	-0.513785	-12.272860	-1.475824	 89.781050	 78.158080	 179.455500	-41.632610	 71.544880	 42.745110	 1.945484	-7.701684	 26.987950	-12.729350	-3.199144	 9.592960	 6.437017	 35.671460	-0.771858	 2.830251	 35.756010	-7.813440	-2.350882	 35.473990	 5.254307
 3.125189	 6.849527	 0.737376	-88.652400	-1.404655	-0.801499	 6.063219	 5.742045	-177.028500	-3.411623	-27.468460	 0.988014	 9.612911	 89.368190	-8.903285	-2.371215	 31.307550	-0.062981	 2.176718	-34.175260	 179.754500	 10.702960	-59.091890	 13.199010	-165.464900	 89.272610	 173.424900	 2.382090	 28.952460	 0.012239	-3.451878	 4.179603	 2.384967	-4.961577	-1.857252	 0.747868	-4.427767	-4.456449	-0.464102	-91.762690	 78.772300	 178.757800	 34.746310	 61.409070	-49.495550	-8.650694	-4.501725	-32.220490	 3.658823	-2.113937	-5.365772	-3.812334	 37.924440	-2.927599	-2.450526	 36.184240	 0.754587	-1.378229	 35.397820	-2.634230	-0.361872	 4.292089	-2.660973	-0.491713	-12.398570	-1.455216	 89.778720	 78.060360	 179.447500	-41.586180	 71.639580	 42.495170	 2.016611	-7.712666	 27.151600	-12.670570	-3.197999	 9.593660	 6.437017	 35.671460	-0.771858	 2.830251	 35.756010	-7.813440	-2.350882	 35.473990	 5.254307
 3.102139	 6.848409	 0.736578	-88.587390	-1.185889	-0.883729	 6.352974	 8.081554	-177.008000	-3.503812	-24.559340	 1.146010	 7.322764	 88.722370	-6.232031	-2.366977	 32.011690	-0.078943	 2.314764	-34.811530	 179.710600	 9.387280	-55.366020	 11.574960	-153.935100	 89.434900	 162.075200	 2.385992	 28.083370	-0.006594	-3.430810	 4.063243	 2.486200	-4.959988	-1.902542	 0.743949	-4.419930	-4.463574	-0.463551	-91.759220	 78.833220	 178.755200	 34.588610	 61.008790	-49.894470	-8.634914	-4.503101	-32.624010	 3.589136	-2.116246	-5.365438	-3.812334	 37.924440	-2.927599	-2.450526	 36.184240	 0.754587	-1.378229	 35.397820	-2.634230	-0.331508	 4.348015	-2.803166	-0.468423	-12.483390	-1.443686	 89.777390	 77.999820	 179.449700	-41.531850	 71.742160	 42.319050	 2.062777	-7.705412	 27.135040	-12.663800	-3.198287	 9.593468	 6.437017	 35.671460	-0.771858	 2.830251	 35.756010	-7.813440	-2.350882	 35.473990	 5.254307
 3.077351	 6.847343	 0.735848	-88.512490	-0.951793	-0.977614	 6.800171	 10.807300	-176.998700	-3.624149	-20.741930	 1.323057	 5.457686	 87.552950	-3.758756	-2.361075	 32.925550	-0.099931	 2.540004	-35.165570	 179.693500	 8.070951	-51.462180	 10.020310	-145.350300	 89.550630	 153.558500	 2.388594	 27.452940	-0.020121	-3.395456	 3.910036	 2.584294	-4.938504	-1.955732	 0.750648	-4.393629	-4.465106	-0.460850	-91.756220	 78.885380	 178.750700	 34.436550	 60.681810	-50.262920	-8.634724	-4.507024	-32.912670	 3.545843	-2.113434	-5.366021	-3.812334	 37.924440	-2.927599	-2.450526	 36.184240	 0.754587	-1.378229	 35.397820	-2.634230	-0.282166	 4.389746	-2.940294	-0.430081	-12.539170	-1.423275	 89.776220	 77.948570	 179.455500	-41.464140	 71.867920	 42.180100	 2.085001	-7.680245	 26.940150	-12.708900	-3.200138	 9.592380	 6.437017	 35.671460	-0.771858	 2.830251	 35.756010	-7.813440	-2.350882	 35.473990	 5.254307
 3.051487	 6.845541	 0.734597	-88.420190	-0.755201	-1.089162	 7.880531	 15.622420	-176.757600	-4.020012	-13.379390	 1.513997	 3.445695	 84.775910	-0.245674	-2.353358	 34.025110	-0.125641	 2.781648	-35.508320	 179.719400	 6.827765	-47.795310	 8.615330	-145.363300	 89.591700	 153.486000	 2.387705	 27.673220	-0.015408	-3.361888	 3.766868	 2.687784	-4.909605	-1.999377	 0.769503	-4.355645	-4.461205	-0.456713	-91.753930	 78.924030	 178.743900	 34.324630	 60.463680	-50.590100	-8.661012	-4.506777	-33.053730	 3.521014	-2.112261	-5.366222	-3.812334	 37.924440	-2.927599	-2.450526	 36.184240	 0.754587	-1.378229	 35.397820	-2.634230	-0.226038	 4.406258	-3.057734	-0.381345	-12.553940	-1.385129	 89.775350	 77.910190	 179.456400	-41.392640	 72.006230	 42.092610	 2.070899	-7.637366	 26.564790	-12.809490	-3.203415	 9.590425	 6.437017	 35.671460	-0.771858	 2.830251	 35.756010	-7.813440	-2.350882	 35.473990	 5.254307
 3.025473	 6.844722	 0.733161	-88.278380	-0.757961	-1.209110	 8.256010	 17.884880	-176.736800	-4.082025	-11.621090	 1.561377	 3.447181	 84.030510	 0.362492	-2.341600	 35.533470	-0.161774	 3.029272	-35.830560	 179.767000	 5.520088	-44.258950	 7.241812	-153.289100	 89.520310	 161.132100	 2.383432	 28.661070	 0.005902	-3.344120	 3.670261	 2.768047	-4.883447	-2.036119	 0.793237	-4.307600	-4.452670	-0.451353	-91.752650	 78.943540	 178.733400	 34.312690	 60.315800	-50.963790	-8.675138	-4.503934	-33.044200	 3.517437	-2.112098	-5.366320	-3.812334	 37.924440	-2.927599	-2.450526	 36.184240	 0.754587	-1.378229	 35.397820	-2.634230	-0.167118	 4.387570	-3.162386	-0.319313	-12.517980	-1.316096	 89.774780	 77.891240	 179.442300	-41.311810	 72.173420	 42.050390	 2.010456	-7.568617	 25.948730	-12.985150	-3.208410	 9.587360	 6.437017	 35.671460	-0.771858	 2.830251	 35.756010	-7.813440	-2.350882	 35.473990	 5.254307
 3.001377	 6.844553	 0.732168	-88.094060	-0.798574	-1.275746	 8.263610	 19.068370	-176.932500	-3.981467	-11.618400	 1.581510	 3.656361	 84.133120	 0.240544	-2.327783	 37.112600	-0.200765	 3.214521	-35.844360	 179.782300	 4.425702	-41.552640	 6.176036	-163.101000	 89.380080	 170.566300	 2.378134	 29.761980	 0.029988	-3.363023	 3.674457	 2.771625	-4.879520	-2.060249	 0.803255	-4.266146	-4.443104	-0.446653	-91.752890	 78.934130	 178.720800	 34.476140	 60.252490	-51.475140	-8.672503	-4.500776	-32.880130	 3.540130	-2.113325	-5.366040	-3.812334	 37.924440	-2.927599	-2.450526	 36.184240	 0.754587	-1.378229	 35.397820	-2.634230	-0.128782	 4.340190	-3.223957	-0.259754	-12.442450	-1.220713	 89.774520	 77.898200	 179.407900	-41.202620	 72.346060	 42.005180	 1.952510	-7.494686	 25.301430	-13.176180	-3.214114	 9.583771	 6.437017	 35.671460	-0.771858	 2.830251	 35.756010	-7.813440	-2.350882	 35.473990	 5.254307
